<?xml version="1.0" encoding="UTF-8" standalone="no"?>
<!DOCTYPE svg PUBLIC "-//W3C//DTD SVG 1.1//EN"
 "http://www.w3.org/Graphics/SVG/1.1/DTD/svg11.dtd">
<!-- Generated by graphviz version 2.42.4 (0)
 -->
<!-- Title: ER Pages: 1 -->
<svg width="540pt" height="143pt"
 viewBox="0.00 0.00 540.00 143.00" xmlns="http://www.w3.org/2000/svg" xmlns:xlink="http://www.w3.org/1999/xlink">
<g id="graph0" class="graph" transform="scale(1 1) rotate(0) translate(4 139)">
<title>ER</title>
<polygon fill="white" stroke="transparent" points="-4,4 -4,-139 536,-139 536,4 -4,4"/>
<!-- device -->
<g id="node1" class="node">
<title>device</title>
<text text-anchor="start" x="72.5" y="-121.3" font-family="sans-serif" font-weight="bold" font-size="14.00">biz_device</text>
<text text-anchor="start" x="3" y="-101.3" font-family="sans-serif" font-size="14.00">id : integer PK</text>
<text text-anchor="start" x="3" y="-82.3" font-family="sans-serif" font-size="14.00">owner_id : string (private scope)</text>
<text text-anchor="start" x="3" y="-63.3" font-family="sans-serif" font-size="14.00">created_at : timestamp</text>
<text text-anchor="start" x="3" y="-44.3" font-family="sans-serif" font-size="14.00">name : string NOT NULL</text>
<text text-anchor="start" x="3" y="-25.3" font-family="sans-serif" font-size="14.00">code : string NOT NULL</text>
<text text-anchor="start" x="3" y="-6.3" font-family="sans-serif" font-size="14.00">enabled : boolean NOT NULL</text>
<polygon fill="none" stroke="black" points="0,0 0,-135 218,-135 218,0 0,0"/>
</g>
<!-- maintenance -->
<g id="node2" class="node">
<title>maintenance</title>
<text text-anchor="start" x="364" y="-121.3" font-family="sans-serif" font-weight="bold" font-size="14.00">biz_maintenance</text>
<text text-anchor="start" x="317" y="-101.3" font-family="sans-serif" font-size="14.00">id : integer PK</text>
<text text-anchor="start" x="317" y="-82.3" font-family="sans-serif" font-size="14.00">owner_id : string (private scope)</text>
<text text-anchor="start" x="317" y="-63.3" font-family="sans-serif" font-size="14.00">created_at : timestamp</text>
<text text-anchor="start" x="317" y="-44.3" font-family="sans-serif" font-size="14.00">device_id : reference NOT NULL</text>
<text text-anchor="start" x="317" y="-25.3" font-family="sans-serif" font-size="14.00">performed_on : date NOT NULL</text>
<text text-anchor="start" x="317" y="-6.3" font-family="sans-serif" font-size="14.00">notes : text NOT NULL</text>
<polygon fill="none" stroke="black" points="314,0 314,-135 532,-135 532,0 314,0"/>
</g>
<!-- device&#45;&gt;maintenance -->
<g id="edge1" class="edge">
<title>device&#45;&gt;maintenance</title>
<path fill="none" stroke="black" d="M223.35,-67.5C249.56,-67.5 277.5,-67.5 303.91,-67.5"/>
<polygon fill="black" stroke="black" points="219.25,-72.5 219.25,-62.5 221.25,-62.5 221.25,-72.5 219.25,-72.5"/>
<polyline fill="none" stroke="black" points="218.25,-67.5 223.25,-67.5 "/>
<polygon fill="black" stroke="black" points="303.94,-67.5 313.94,-72 308.94,-67.5 313.94,-67.5 313.94,-67.5 313.94,-67.5 308.94,-67.5 313.94,-63 303.94,-67.5 303.94,-67.5"/>
<text text-anchor="middle" x="266" y="-71.3" font-family="sans-serif" font-size="14.00">device_id</text>
</g>
</g>
</svg>
